<svg width="167" height="286" viewBox="0 0 167 286" fill="none" xmlns="http://www.w3.org/2000/svg">
<path d="M149.1 282.3L163.4 268C165.3 266.1 166.3 263.9 166.3 261.4C166.3 258.9 165.3 256.7 163.4 254.8L51.2 142.6L163.4 30.4001C165.3 28.5001 166.3 26.3001 166.3 23.8001C166.3 21.3001 165.3 19.1001 163.4 17.2001L149.1 2.90008C147.2 1.00008 145 8.96906e-05 142.5 8.94721e-05C140 8.92535e-05 137.8 1.00008 135.9 2.90008L2.90001 135.9C1.00001 137.8 -2.57374e-06 140 -2.7923e-06 142.5C-3.01086e-06 145 1.00001 147.2 2.90001 149.1L136 282.3C137.9 284.2 140 285.1 142.5 285.1C145 285.1 147.2 284.2 149.1 282.3Z" fill="#F7F7F7"/>
</svg>
