<svg width="46" height="31" viewBox="0 0 46 31" fill="none" xmlns="http://www.w3.org/2000/svg">
<path d="M22.2197 14.9426C19.2286 16.6359 16.4511 16.1379 14.7419 15.5402C15.8102 17.4327 16.0238 19.9227 15.1692 22.5124C16.7716 23.3092 17.733 24.4048 17.733 24.4048C17.733 24.4048 16.4511 24.106 15.0624 25.3013C13.8873 26.2973 13.46 27.2933 13.3532 27.7913C13.3532 27.5921 13.1395 27.1937 12.8191 26.5961C6.08905 34.9627 0.427302 29.5842 3.52524 25.4009C5.12762 23.2096 7.15731 22.3132 8.75969 21.9148V13.349C6.73 13.7474 5.12762 14.9426 4.80715 17.0343C4.48667 19.6239 5.98223 20.0223 7.26413 20.3212C8.01191 20.5204 7.90509 21.616 7.37096 21.9148C6.83683 22.2136 5.98223 22.114 5.4481 21.8152C4.05937 21.118 3.41842 19.6239 3.20476 18.0303C3.09794 15.6398 4.80715 12.9506 8.65286 12.353V7.07405C8.54604 3.38876 7.69143 0.998309 5.0208 0.799104C1.49556 0.5999 0.106825 3.08996 0 3.28916C0 3.08996 1.06825 -0.0973163 5.34127 0.002286C9.08016 0.101888 11.3235 1.39672 12.3918 3.98638C12.3918 3.98638 14.6351 4.28518 16.7716 3.38876C19.3354 2.29314 19.9764 1.59592 19.9764 1.59592C19.9764 1.59592 21.0446 3.68757 23.1811 8.16967C25.9586 12.6518 22.2197 14.9426 22.2197 14.9426ZM12.3918 26.1977C11.9645 25.6997 11.2167 25.2017 10.0416 24.8033C7.69143 23.9068 5.8754 24.6041 4.70032 25.8989C3.20476 27.4925 3.31159 30.0822 5.66175 30.1818C8.11874 30.1818 10.5757 28.4885 12.3918 26.1977ZM19.3354 9.0661C18.1603 6.67564 17.1989 4.28518 17.1989 4.28518C17.1989 4.28518 16.4511 4.9824 12.6054 4.9824L12.7122 13.1498C13.3532 13.5482 13.8873 14.1458 14.3146 14.7434C17.6262 16.0383 22.4333 15.1418 19.3354 9.0661ZM13.5668 15.0422C13.1395 14.843 12.9259 14.6438 12.9259 14.6438L12.7122 14.4446V21.8152H12.9259C13.5668 21.9148 13.9941 22.114 14.5283 22.3132C15.0624 20.7196 15.276 19.1259 14.8487 17.7315C14.6351 16.8351 14.2078 15.9387 13.5668 15.0422Z" fill="#F6F6F6"/>
<path d="M44.0123 14.9426C41.0212 16.6359 38.2437 16.1379 36.5345 15.5402C37.6028 17.4327 37.8164 19.9227 36.9618 22.5124C38.5642 23.3092 39.5256 24.4048 39.5256 24.4048C39.5256 24.4048 38.2437 24.106 36.855 25.3013C35.6799 26.2973 35.2526 27.2933 35.1458 27.7913C35.1458 27.5921 34.9321 27.1937 34.6117 26.5961C27.8817 34.9627 22.2199 29.5842 25.3178 25.4009C26.9202 23.2096 28.9499 22.3132 30.5523 21.9148V13.349C28.5226 13.7474 26.9202 14.9426 26.5997 17.0343C26.2793 19.6239 27.7748 20.0223 29.0567 20.3212C29.8045 20.5204 29.6977 21.616 29.1636 21.9148C28.6294 22.2136 27.7748 22.114 27.2407 21.8152C25.852 21.118 25.211 19.6239 24.9974 18.0303C24.8905 15.6398 26.5997 12.9506 30.4455 12.353V7.07405C30.2318 3.48837 29.3772 0.998309 26.8134 0.799104C23.2882 0.5999 21.8994 3.08996 21.7926 3.28916C21.7926 3.08996 22.8609 -0.0973163 27.1339 0.002286C30.9796 0.101888 33.1161 1.39672 34.1844 3.98638C34.1844 3.98638 36.4277 4.28518 38.5642 3.38876C41.128 2.29314 41.769 1.59592 41.769 1.59592C41.769 1.59592 42.8372 3.68757 44.9737 8.16967C47.7512 12.6518 44.0123 14.9426 44.0123 14.9426ZM34.1844 26.1977C33.7571 25.6997 33.0093 25.2017 31.8342 24.8033C29.484 23.9068 27.668 24.6041 26.4929 25.8989C24.9974 27.4925 25.1042 30.0822 27.4544 30.1818C29.9113 30.1818 32.3683 28.4885 34.1844 26.1977ZM41.128 9.0661C39.9529 6.67564 38.9915 4.28518 38.9915 4.28518C38.9915 4.28518 38.2437 4.9824 34.398 4.9824L34.5048 13.1498C35.1458 13.5482 35.6799 14.1458 36.1072 14.7434C39.4188 16.0383 44.1191 15.1418 41.128 9.0661ZM35.3594 15.0422C34.9321 14.843 34.7185 14.6438 34.7185 14.6438L34.5048 14.4446V21.8152H34.7185C35.3594 21.9148 35.7867 22.114 36.3209 22.3132C36.855 20.7196 37.0686 19.1259 36.6413 17.7315C36.4277 16.8351 36.0004 15.9387 35.3594 15.0422Z" fill="#F6F6F6"/>
</svg>
