<svg width="167" height="286" viewBox="0 0 167 286" fill="none" xmlns="http://www.w3.org/2000/svg">
<path d="M17.5 2.8L3.19999 17.1C1.29999 19 0.299988 21.2 0.299988 23.7C0.299988 26.2 1.29999 28.4 3.19999 30.3L115.4 142.5L3.19999 254.7C1.29999 256.6 0.299988 258.8 0.299988 261.3C0.299988 263.8 1.29999 266 3.19999 267.9L17.5 282.2C19.4 284.1 21.6 285.1 24.1 285.1C26.6 285.1 28.8 284.1 30.7 282.2L163.7 149.2C165.6 147.3 166.6 145.1 166.6 142.6C166.6 140.1 165.6 137.9 163.7 136L30.6 2.8C28.7 0.9 26.6 0 24.1 0C21.6 0 19.4 0.9 17.5 2.8Z" fill="#F7F7F7"/>
</svg>
